<svg width="698" height="562" viewBox="0 0 698 562" fill="none" xmlns="http://www.w3.org/2000/svg">
<path d="M291.703 197.41L291.442 197.837L291.703 197.996L291.963 197.837L291.703 197.41ZM299.603 192.585L299.864 193.012L300.603 192.561L299.843 192.147L299.603 192.585ZM283.802 192.585L283.563 192.147L282.803 192.561L283.542 193.012L283.802 192.585ZM291.703 188.278L291.942 187.839L291.703 187.708L291.463 187.839L291.703 188.278ZM281.775 193.691L281.514 194.118V194.118L281.775 193.691ZM291.703 199.754L291.442 200.181L291.703 200.34L291.963 200.181L291.703 199.754ZM279.804 192.487L279.565 192.048L278.805 192.463L279.544 192.914L279.804 192.487ZM281.832 191.382L281.592 190.943V190.943L281.832 191.382ZM291.703 186L291.942 185.561L291.703 185.431L291.463 185.561L291.703 186ZM301.574 191.382L301.335 191.821V191.821L301.574 191.382ZM303.601 192.487L303.862 192.914L304.601 192.463L303.841 192.048L303.601 192.487ZM301.631 193.691L301.891 194.118L301.631 193.691ZM84.2974 227.687L84.6534 228.038L85.2611 227.422L84.4236 227.204L84.2974 227.687ZM77.8017 234.276L77.652 234.753L77.9434 234.845L78.1578 234.627L77.8017 234.276ZM75.5859 225.415L75.7121 224.932L75.4483 224.863L75.2475 225.047L75.5859 225.415ZM68.965 231.502L68.6266 231.134L67.9894 231.72L68.8153 231.979L68.965 231.502ZM78.3683 236.55L78.2185 237.027L78.5099 237.119L78.7243 236.901L78.3683 236.55ZM67.2653 233.065L67.415 232.588L67.2653 233.065ZM86.5315 228.27L86.8875 228.621L86.5315 228.27ZM88.1524 226.626L88.5084 226.977L89.1161 226.361L88.2786 226.142L88.1524 226.626ZM85.9183 226.043L86.0445 225.559V225.559L85.9183 226.043ZM75.0353 223.205L75.1615 222.721L74.8976 222.652L74.6969 222.837L75.0353 223.205ZM66.7621 230.811L67.1005 231.179L66.7621 230.811ZM65.0624 232.373L64.724 232.005L64.0867 232.591L64.9126 232.85L65.0624 232.373ZM210.256 232.619L210.646 232.307L210.456 232.068L210.156 232.129L210.256 232.619ZM201.176 234.456L201.077 233.966L200.229 234.137L200.801 234.786L201.176 234.456ZM216.026 239.849L216.101 240.343L216.956 240.214L216.416 239.537L216.026 239.849ZM207.123 241.2L206.748 241.53L206.929 241.735L207.198 241.694L207.123 241.2ZM218.308 239.503L218.699 239.191L218.308 239.503ZM211.057 230.416L211.447 230.104L211.257 229.866L210.958 229.926L211.057 230.416ZM219.748 241.307L219.823 241.801L220.679 241.672L220.139 240.995L219.748 241.307ZM217.466 241.653L217.391 241.159L217.466 241.653ZM206.345 243.341L205.97 243.671L206.15 243.876L206.42 243.835L206.345 243.341ZM198.913 234.913L199.288 234.583L198.913 234.913ZM197.386 233.182L197.287 232.692L196.439 232.863L197.011 233.513L197.386 233.182ZM199.649 232.724L199.55 232.234L199.649 232.724ZM72.2912 343.169L72.7496 342.969L72.6274 342.688L72.3216 342.67L72.2912 343.169ZM63.0504 342.604L63.0808 342.105L62.2194 342.052L62.6022 342.826L63.0504 342.604ZM75.9816 351.651L75.9266 352.148L76.7843 352.243L76.44 351.451L75.9816 351.651ZM67.0381 350.662L66.59 350.884L66.7113 351.129L66.9832 351.159L67.0381 350.662ZM78.2729 351.904L77.8144 352.104L78.2729 351.904ZM73.6362 341.247L74.0947 341.048L73.9725 340.767L73.6667 340.748L73.6362 341.247ZM79.1926 354.018L79.1376 354.515L79.9953 354.61L79.6511 353.819L79.1926 354.018ZM76.9012 353.765L76.8463 354.262H76.8463L76.9012 353.765ZM65.7309 352.529L65.2828 352.751L65.4041 352.996L65.6759 353.026L65.7309 352.529ZM60.7493 342.464L61.1974 342.242L60.7493 342.464ZM59.7267 340.397L59.7572 339.898L58.8958 339.846L59.2786 340.619L59.7267 340.397ZM62.0278 340.538L61.9973 341.037H61.9973L62.0278 340.538ZM637.176 239.456L637.077 238.966L636.229 239.137L636.801 239.786L637.176 239.456ZM646.256 237.619L646.646 237.307L646.456 237.068L646.157 237.129L646.256 237.619ZM643.123 246.2L642.748 246.53L642.929 246.735L643.198 246.694L643.123 246.2ZM652.026 244.849L652.101 245.343L652.956 245.214L652.416 244.537L652.026 244.849ZM647.057 235.416L647.448 235.104L647.257 234.866L646.958 234.926L647.057 235.416ZM654.308 244.503L653.917 244.815V244.815L654.308 244.503ZM635.649 237.724L635.55 237.234L635.649 237.724ZM633.386 238.182L633.287 237.692L632.439 237.863L633.011 238.513L633.386 238.182ZM634.913 239.913L635.288 239.583L634.913 239.913ZM642.345 248.341L641.97 248.671L642.15 248.876L642.42 248.835L642.345 248.341ZM653.466 246.653L653.391 246.159L653.466 246.653ZM655.748 246.307L655.823 246.801L656.679 246.672L656.139 245.995L655.748 246.307ZM148.013 329.222L147.822 328.76L147.539 328.877L147.515 329.182L148.013 329.222ZM147.279 338.438L146.781 338.398L146.712 339.259L147.493 338.89L147.279 338.438ZM156.572 325.675L157.068 325.739L157.179 324.882L156.381 325.213L156.572 325.675ZM155.419 334.587L155.633 335.039L155.88 334.922L155.915 334.651L155.419 334.587ZM156.868 323.387L156.677 322.925L156.868 323.387ZM146.117 327.843L145.925 327.381L145.642 327.498L145.618 327.803L146.117 327.843ZM158.999 322.504L159.495 322.568L159.606 321.711L158.808 322.042L158.999 322.504ZM158.703 324.792L158.207 324.727L158.703 324.792ZM157.262 335.927L157.476 336.379L157.723 336.262L157.758 335.991L157.262 335.927ZM147.096 340.737L146.882 340.285L147.096 340.737ZM145.011 341.724L144.513 341.684L144.445 342.545L145.225 342.176L145.011 341.724ZM145.195 339.424L144.696 339.385L145.195 339.424ZM213.004 379.868L212.504 379.865L212.5 380.728L213.251 380.303L213.004 379.868ZM225.126 373.007L225.373 373.442L225.639 373.291L225.626 372.985L225.126 373.007ZM213.078 366.326L212.811 365.903L212.58 366.049L212.578 366.323L213.078 366.326ZM224.518 359.087L225.017 359.065L224.98 358.203L224.251 358.664L224.518 359.087ZM468.9 259.897L469.067 260.368L469.356 260.266L469.396 259.963L468.9 259.897ZM455.756 264.555L455.264 264.465L455.108 265.315L455.923 265.027L455.756 264.555ZM470.732 246.093L471.227 246.159L471.341 245.302L470.542 245.63L470.732 246.093ZM458.194 251.242L458.004 250.779L457.751 250.883L457.702 251.152L458.194 251.242ZM12.0922 279.984L12.4426 280.34L12.6611 280.126L12.5691 279.833L12.0922 279.984ZM9.31329 271.161L9.79019 271.011L9.53091 270.188L8.94577 270.822L9.31329 271.161ZM5.48764 286.473L5.00393 286.599L5.22243 287.434L5.83807 286.829L5.48764 286.473ZM3.21179 277.776L2.84427 277.437L2.65884 277.638L2.72808 277.903L3.21179 277.776ZM6.0713 288.703L6.42173 289.06H6.42173L6.0713 288.703ZM14.3679 280.551L14.7183 280.908L14.9368 280.693L14.8448 280.401L14.3679 280.551ZM4.42679 290.319L3.94308 290.446L4.16158 291.281L4.77722 290.676L4.42679 290.319ZM3.84313 288.089L3.35942 288.215H3.35942L3.84313 288.089ZM1 277.224L0.632479 276.885L0.447053 277.086L0.516288 277.351L1 277.224ZM8.62067 268.963L8.25315 268.623L8.62067 268.963ZM10.1838 267.268L10.6607 267.118L10.4014 266.295L9.81626 266.929L10.1838 267.268ZM10.8764 269.467L10.3995 269.617L10.8764 269.467ZM565.313 338.161L565.79 338.011L565.531 337.188L564.946 337.822L565.313 338.161ZM568.092 346.984L568.443 347.34L568.661 347.126L568.569 346.833L568.092 346.984ZM559.212 344.776L558.844 344.437L558.659 344.638L558.728 344.903L559.212 344.776ZM561.488 353.473L561.004 353.599L561.222 354.434L561.838 353.829L561.488 353.473ZM570.368 347.551L570.718 347.908L570.937 347.693L570.845 347.401L570.368 347.551ZM562.071 355.703L562.422 356.06L562.071 355.703ZM566.876 336.467L567.353 336.317L566.876 336.467ZM566.184 334.268L566.661 334.118L566.401 333.295L565.816 333.929L566.184 334.268ZM564.621 335.963L564.988 336.302L564.621 335.963ZM557 344.224L556.633 343.885L556.447 344.086L556.516 344.351L557 344.224ZM559.843 355.089L559.359 355.215L559.843 355.089ZM560.427 357.319L559.943 357.446L560.162 358.281L560.777 357.676L560.427 357.319ZM617.798 368.401L618.21 368.684L618.701 367.972L617.838 367.902L617.798 368.401ZM612.545 376.021L612.481 376.517L612.784 376.556L612.957 376.305L612.545 376.021ZM608.828 367.676L608.868 367.178L608.596 367.156L608.431 367.373L608.828 367.676ZM603.365 374.824L602.967 374.52L602.442 375.208L603.3 375.32L603.365 374.824ZM613.499 378.162L613.434 378.658L613.737 378.698L613.91 378.446L613.499 378.162ZM601.963 376.658L601.898 377.154L601.963 376.658ZM620.099 368.586L620.511 368.87V368.87L620.099 368.586ZM621.409 366.686L621.821 366.969L622.312 366.257L621.449 366.187L621.409 366.686ZM619.108 366.5L619.148 366.001L619.108 366.5ZM607.901 365.595L607.942 365.097L607.67 365.075L607.504 365.291L607.901 365.595ZM601.076 374.525L600.678 374.222V374.222L601.076 374.525ZM599.674 376.36L599.276 376.056L598.751 376.744L599.609 376.855L599.674 376.36ZM230.151 467.204L229.707 466.974L229.566 467.245L229.744 467.495L230.151 467.204ZM235.526 474.739L235.119 475.03L235.62 475.732L235.98 474.948L235.526 474.739ZM234.423 458.997L234.844 458.727L234.378 458.001L233.979 458.766L234.423 458.997ZM239.28 466.568L239.735 466.777L239.849 466.528L239.701 466.298L239.28 466.568ZM233.178 457.057L233.621 457.288L233.178 457.057ZM227.811 467.368L227.368 467.137L227.226 467.409L227.404 467.659L227.811 467.368ZM234.242 455.012L234.663 454.742L234.197 454.016L233.799 454.781L234.242 455.012ZM235.487 456.952L235.066 457.222L235.487 456.952ZM241.555 466.409L242.009 466.618L242.123 466.369L241.975 466.139L241.555 466.409ZM236.865 476.616L236.41 476.407L236.865 476.616ZM235.902 478.711L235.495 479.001L235.996 479.704L236.356 478.919L235.902 478.711ZM234.563 476.834L234.156 477.124L234.563 476.834ZM693.275 390.347L692.944 390.722L693.591 391.294L693.765 390.448L693.275 390.347ZM686.34 384.212L685.856 384.087L685.779 384.383L686.008 384.586L686.34 384.212ZM695.092 381.544L695.582 381.645L695.637 381.377L695.441 381.186L695.092 381.544ZM688.652 375.257L689.001 374.899L688.384 374.296L688.168 375.132L688.652 375.257ZM684.097 384.898L683.613 384.773L683.536 385.07L683.766 385.273L684.097 384.898ZM687.002 373.646L686.518 373.521L687.002 373.646ZM692.809 392.605L692.478 392.98L692.809 392.605ZM694.536 394.133L694.205 394.507L694.852 395.079L695.026 394.234L694.536 394.133ZM695.002 391.875L694.513 391.774V391.774L695.002 391.875ZM697.272 380.877L697.762 380.978L697.817 380.71L697.621 380.519L697.272 380.877ZM689.229 373.025L689.578 372.667L689.229 373.025ZM687.579 371.414L687.928 371.056L687.311 370.453L687.095 371.289L687.579 371.414ZM518.186 438.039L518.019 437.568L517.73 437.67L517.69 437.973L518.186 438.039ZM516.97 447.204L516.474 447.138L516.361 447.995L517.16 447.667L516.97 447.204ZM526.919 434.944L527.411 435.034L527.566 434.184L526.752 434.473L526.919 434.944ZM525.3 443.783L525.49 444.246L525.743 444.142L525.792 443.873L525.3 443.783ZM527.334 432.675L527.501 433.146L527.334 432.675ZM516.364 436.563L516.197 436.091L515.909 436.194L515.868 436.497L516.364 436.563ZM529.509 431.904L530.001 431.994L530.156 431.144L529.342 431.433L529.509 431.904ZM529.093 434.174L529.585 434.264L529.093 434.174ZM527.071 445.218L527.261 445.681L527.514 445.577L527.563 445.308L527.071 445.218ZM516.667 449.491L516.477 449.028L516.667 449.491ZM514.533 450.367L514.037 450.301L513.924 451.158L514.723 450.829L514.533 450.367ZM514.836 448.08L515.332 448.146V448.146L514.836 448.08ZM291.963 197.837L299.864 193.012L299.343 192.159L291.442 196.984L291.963 197.837ZM283.542 193.012L291.442 197.837L291.963 196.984L284.063 192.159L283.542 193.012ZM291.463 187.839L283.563 192.147L284.042 193.024L291.942 188.717L291.463 187.839ZM299.843 192.147L291.942 187.839L291.463 188.717L299.364 193.024L299.843 192.147ZM281.514 194.118L291.442 200.181L291.963 199.327L282.036 193.264L281.514 194.118ZM279.544 192.914L281.514 194.118L282.036 193.264L280.065 192.061L279.544 192.914ZM281.592 190.943L279.565 192.048L280.044 192.926L282.071 191.821L281.592 190.943ZM291.463 185.561L281.592 190.943L282.071 191.821L291.942 186.439L291.463 185.561ZM301.813 190.943L291.942 185.561L291.463 186.439L301.335 191.821L301.813 190.943ZM303.841 192.048L301.813 190.943L301.335 191.821L303.362 192.926L303.841 192.048ZM301.891 194.118L303.862 192.914L303.341 192.061L301.37 193.264L301.891 194.118ZM291.963 200.181L301.891 194.118L301.37 193.264L291.442 199.327L291.963 200.181ZM83.9413 227.336L77.4457 233.925L78.1578 234.627L84.6534 228.038L83.9413 227.336ZM75.4597 225.899L84.1712 228.171L84.4236 227.204L75.7121 224.932L75.4597 225.899ZM69.3034 231.87L75.9243 225.784L75.2475 225.047L68.6266 231.134L69.3034 231.87ZM77.9515 233.799L69.1148 231.025L68.8153 231.979L77.652 234.753L77.9515 233.799ZM78.518 236.073L67.415 232.588L67.1155 233.542L78.2185 237.027L78.518 236.073ZM86.1754 227.919L78.0122 236.199L78.7243 236.901L86.8875 228.621L86.1754 227.919ZM87.7963 226.275L86.1754 227.919L86.8875 228.621L88.5084 226.977L87.7963 226.275ZM85.7921 226.527L88.0262 227.11L88.2786 226.142L86.0445 225.559L85.7921 226.527ZM74.9091 223.689L85.7921 226.527L86.0445 225.559L75.1615 222.721L74.9091 223.689ZM67.1005 231.179L75.3737 223.573L74.6969 222.837L66.4237 230.442L67.1005 231.179ZM65.4008 232.741L67.1005 231.179L66.4237 230.442L64.724 232.005L65.4008 232.741ZM67.415 232.588L65.2121 231.896L64.9126 232.85L67.1155 233.542L67.415 232.588ZM210.156 232.129L201.077 233.966L201.275 234.946L210.355 233.109L210.156 232.129ZM216.416 239.537L210.646 232.307L209.865 232.931L215.635 240.161L216.416 239.537ZM207.198 241.694L216.101 240.343L215.951 239.355L207.048 240.705L207.198 241.694ZM200.801 234.786L206.748 241.53L207.498 240.869L201.551 234.125L200.801 234.786ZM218.699 239.191L211.447 230.104L210.666 230.728L217.917 239.815L218.699 239.191ZM220.139 240.995L218.699 239.191L217.917 239.815L219.357 241.619L220.139 240.995ZM217.541 242.148L219.823 241.801L219.673 240.813L217.391 241.159L217.541 242.148ZM206.42 243.835L217.541 242.148L217.391 241.159L206.27 242.846L206.42 243.835ZM198.538 235.244L205.97 243.671L206.72 243.01L199.288 234.583L198.538 235.244ZM197.011 233.513L198.538 235.244L199.288 234.583L197.761 232.851L197.011 233.513ZM199.55 232.234L197.287 232.692L197.485 233.672L199.748 233.214L199.55 232.234ZM210.958 229.926L199.55 232.234L199.748 233.214L211.156 230.906L210.958 229.926ZM72.3216 342.67L63.0808 342.105L63.0199 343.103L72.2607 343.668L72.3216 342.67ZM76.44 351.451L72.7496 342.969L71.8327 343.368L75.5231 351.85L76.44 351.451ZM66.9832 351.159L75.9266 352.148L76.0365 351.154L67.0931 350.165L66.9832 351.159ZM62.6022 342.826L66.59 350.884L67.4863 350.44L63.4985 342.382L62.6022 342.826ZM78.7314 351.705L74.0947 341.048L73.1777 341.447L77.8144 352.104L78.7314 351.705ZM79.6511 353.819L78.7314 351.705L77.8144 352.104L78.7341 354.218L79.6511 353.819ZM76.8463 354.262L79.1376 354.515L79.2476 353.521L76.9562 353.268L76.8463 354.262ZM65.6759 353.026L76.8463 354.262L76.9562 353.268L65.7859 352.032L65.6759 353.026ZM60.3011 342.685L65.2828 352.751L66.179 352.308L61.1974 342.242L60.3011 342.685ZM59.2786 340.619L60.3011 342.685L61.1974 342.242L60.1748 340.176L59.2786 340.619ZM62.0583 340.039L59.7572 339.898L59.6962 340.896L61.9973 341.037L62.0583 340.039ZM73.6667 340.748L62.0583 340.039L61.9973 341.037L73.6058 341.746L73.6667 340.748ZM637.275 239.946L646.355 238.109L646.157 237.129L637.077 238.966L637.275 239.946ZM643.498 245.869L637.551 239.125L636.801 239.786L642.748 246.53L643.498 245.869ZM651.951 244.355L643.048 245.705L643.198 246.694L652.101 245.343L651.951 244.355ZM645.865 237.931L651.635 245.161L652.416 244.537L646.646 237.307L645.865 237.931ZM646.666 235.728L653.917 244.815L654.699 244.191L647.448 235.104L646.666 235.728ZM635.748 238.214L647.156 235.906L646.958 234.926L635.55 237.234L635.748 238.214ZM633.485 238.672L635.748 238.214L635.55 237.234L633.287 237.692L633.485 238.672ZM635.288 239.583L633.761 237.851L633.011 238.513L634.538 240.244L635.288 239.583ZM642.72 248.01L635.288 239.583L634.538 240.244L641.97 248.671L642.72 248.01ZM653.391 246.159L642.27 247.846L642.42 248.835L653.541 247.148L653.391 246.159ZM655.673 245.813L653.391 246.159L653.541 247.148L655.823 246.801L655.673 245.813ZM653.917 244.815L655.357 246.619L656.139 245.995L654.699 244.191L653.917 244.815ZM147.515 329.182L146.781 338.398L147.778 338.478L148.511 329.261L147.515 329.182ZM156.381 325.213L147.822 328.76L148.204 329.684L156.764 326.137L156.381 325.213ZM155.915 334.651L157.068 325.739L156.076 325.611L154.923 334.522L155.915 334.651ZM147.493 338.89L155.633 335.039L155.205 334.135L147.066 337.986L147.493 338.89ZM156.677 322.925L145.925 327.381L146.308 328.305L157.059 323.849L156.677 322.925ZM158.808 322.042L156.677 322.925L157.059 323.849L159.19 322.966L158.808 322.042ZM159.199 324.856L159.495 322.568L158.503 322.44L158.207 324.727L159.199 324.856ZM157.758 335.991L159.199 324.856L158.207 324.727L156.767 335.863L157.758 335.991ZM147.31 341.189L157.476 336.379L157.049 335.475L146.882 340.285L147.31 341.189ZM145.225 342.176L147.31 341.189L146.882 340.285L144.798 341.272L145.225 342.176ZM144.696 339.385L144.513 341.684L145.51 341.763L145.693 339.464L144.696 339.385ZM145.618 327.803L144.696 339.385L145.693 339.464L146.615 327.882L145.618 327.803ZM213.251 380.303L225.373 373.442L224.88 372.572L212.758 379.432L213.251 380.303ZM212.578 366.323L212.504 379.865L213.504 379.87L213.578 366.328L212.578 366.323ZM224.251 358.664L212.811 365.903L213.346 366.748L224.785 359.509L224.251 358.664ZM225.626 372.985L225.017 359.065L224.018 359.108L224.627 373.029L225.626 372.985ZM468.733 259.426L455.589 264.084L455.923 265.027L469.067 260.368L468.733 259.426ZM470.236 246.027L468.405 259.831L469.396 259.963L471.227 246.159L470.236 246.027ZM458.384 251.704L470.922 246.555L470.542 245.63L458.004 250.779L458.384 251.704ZM456.248 264.645L458.685 251.332L457.702 251.152L455.264 264.465L456.248 264.645ZM12.5691 279.833L9.79019 271.011L8.83639 271.312L11.6153 280.134L12.5691 279.833ZM5.83807 286.829L12.4426 280.34L11.7417 279.627L5.13721 286.116L5.83807 286.829ZM2.72808 277.903L5.00393 286.599L5.97135 286.346L3.6955 277.649L2.72808 277.903ZM8.94577 270.822L2.84427 277.437L3.57931 278.115L9.68081 271.5L8.94577 270.822ZM6.42173 289.06L14.7183 280.908L14.0175 280.195L5.72087 288.347L6.42173 289.06ZM4.77722 290.676L6.42173 289.06L5.72087 288.347L4.07636 289.962L4.77722 290.676ZM3.35942 288.215L3.94308 290.446L4.9105 290.192L4.32684 287.962L3.35942 288.215ZM0.516288 277.351L3.35942 288.215L4.32684 287.962L1.48371 277.097L0.516288 277.351ZM8.25315 268.623L0.632479 276.885L1.36752 277.563L8.98819 269.302L8.25315 268.623ZM9.81626 266.929L8.25315 268.623L8.98819 269.302L10.5513 267.607L9.81626 266.929ZM11.3533 269.317L10.6607 267.118L9.70688 267.418L10.3995 269.617L11.3533 269.317ZM14.8448 280.401L11.3533 269.317L10.3995 269.617L13.891 280.702L14.8448 280.401ZM564.836 338.312L567.615 347.134L568.569 346.833L565.79 338.011L564.836 338.312ZM559.579 345.115L565.681 338.5L564.946 337.822L558.844 344.437L559.579 345.115ZM561.971 353.346L559.695 344.649L558.728 344.903L561.004 353.599L561.971 353.346ZM567.742 346.627L561.137 353.116L561.838 353.829L568.443 347.34L567.742 346.627ZM570.018 347.195L561.721 355.347L562.422 356.06L570.718 347.908L570.018 347.195ZM566.399 336.617L569.891 347.702L570.845 347.401L567.353 336.317L566.399 336.617ZM565.707 334.418L566.399 336.617L567.353 336.317L566.661 334.118L565.707 334.418ZM564.988 336.302L566.551 334.607L565.816 333.929L564.253 335.624L564.988 336.302ZM557.367 344.563L564.988 336.302L564.253 335.624L556.633 343.885L557.367 344.563ZM560.327 354.962L557.484 344.097L556.516 344.351L559.359 355.215L560.327 354.962ZM560.911 357.192L560.327 354.962L559.359 355.215L559.943 357.446L560.911 357.192ZM561.721 355.347L560.076 356.962L560.777 357.676L562.422 356.06L561.721 355.347ZM617.386 368.117L612.134 375.737L612.957 376.305L618.21 368.684L617.386 368.117ZM608.788 368.175L617.758 368.899L617.838 367.902L608.868 367.178L608.788 368.175ZM603.762 375.128L609.225 367.98L608.431 367.373L602.967 374.52L603.762 375.128ZM612.61 375.525L603.429 374.328L603.3 375.32L612.481 376.517L612.61 375.525ZM613.563 377.666L602.027 376.162L601.898 377.154L613.434 378.658L613.563 377.666ZM619.687 368.303L613.087 377.878L613.91 378.446L620.511 368.87L619.687 368.303ZM620.997 366.402L619.687 368.303L620.511 368.87L621.821 366.969L620.997 366.402ZM619.068 366.998L621.369 367.184L621.449 366.187L619.148 366.001L619.068 366.998ZM607.861 366.093L619.068 366.998L619.148 366.001L607.942 365.097L607.861 366.093ZM601.473 374.829L608.299 365.899L607.504 365.291L600.678 374.222L601.473 374.829ZM600.071 376.663L601.473 374.829L600.678 374.222L599.276 376.056L600.071 376.663ZM602.027 376.162L599.738 375.864L599.609 376.855L601.898 377.154L602.027 376.162ZM229.744 467.495L235.119 475.03L235.933 474.449L230.558 466.914L229.744 467.495ZM233.979 458.766L229.707 466.974L230.594 467.435L234.866 459.228L233.979 458.766ZM239.701 466.298L234.844 458.727L234.002 459.267L238.86 466.838L239.701 466.298ZM235.98 474.948L239.735 466.777L238.826 466.359L235.072 474.531L235.98 474.948ZM232.734 456.826L227.368 467.137L228.255 467.599L233.621 457.288L232.734 456.826ZM233.799 454.781L232.734 456.826L233.621 457.288L234.686 455.243L233.799 454.781ZM235.908 456.682L234.663 454.742L233.821 455.282L235.066 457.222L235.908 456.682ZM241.975 466.139L235.908 456.682L235.066 457.222L241.134 466.679L241.975 466.139ZM237.319 476.825L242.009 466.618L241.1 466.2L236.41 476.407L237.319 476.825ZM236.356 478.919L237.319 476.825L236.41 476.407L235.448 478.502L236.356 478.919ZM234.156 477.124L235.495 479.001L236.309 478.42L234.97 476.544L234.156 477.124ZM227.404 467.659L234.156 477.124L234.97 476.544L228.218 467.078L227.404 467.659ZM693.607 389.973L686.671 383.837L686.008 384.586L692.944 390.722L693.607 389.973ZM694.602 381.443L692.786 390.246L693.765 390.448L695.582 381.645L694.602 381.443ZM688.303 375.615L694.743 381.902L695.441 381.186L689.001 374.899L688.303 375.615ZM686.824 384.337L689.136 375.382L688.168 375.132L685.856 384.087L686.824 384.337ZM684.581 385.023L687.487 373.771L686.518 373.521L683.613 384.773L684.581 385.023ZM693.141 392.231L684.428 384.524L683.766 385.273L692.478 392.98L693.141 392.231ZM694.868 393.758L693.141 392.231L692.478 392.98L694.205 394.507L694.868 393.758ZM694.513 391.774L694.047 394.032L695.026 394.234L695.492 391.976L694.513 391.774ZM696.782 380.776L694.513 391.774L695.492 391.976L697.762 380.978L696.782 380.776ZM688.879 373.382L696.923 381.235L697.621 380.519L689.578 372.667L688.879 373.382ZM687.23 371.772L688.879 373.382L689.578 372.667L687.928 371.056L687.23 371.772ZM687.487 373.771L688.063 371.539L687.095 371.289L686.518 373.521L687.487 373.771ZM517.69 437.973L516.474 447.138L517.466 447.27L518.681 438.105L517.69 437.973ZM526.752 434.473L518.019 437.568L518.353 438.51L527.086 435.415L526.752 434.473ZM525.792 443.873L527.411 435.034L526.427 434.854L524.809 443.693L525.792 443.873ZM517.16 447.667L525.49 444.246L525.111 443.321L516.78 446.742L517.16 447.667ZM527.167 432.204L516.197 436.091L516.531 437.034L527.501 433.146L527.167 432.204ZM529.342 431.433L527.167 432.204L527.501 433.146L529.676 432.376L529.342 431.433ZM529.585 434.264L530.001 431.994L529.017 431.814L528.601 434.083L529.585 434.264ZM527.563 445.308L529.585 434.264L528.601 434.083L526.579 445.128L527.563 445.308ZM516.857 449.953L527.261 445.681L526.881 444.756L516.477 449.028L516.857 449.953ZM514.723 450.829L516.857 449.953L516.477 449.028L514.343 449.904L514.723 450.829ZM514.341 448.014L514.037 450.301L515.029 450.433L515.332 448.146L514.341 448.014ZM515.868 436.497L514.341 448.014L515.332 448.146L516.86 436.628L515.868 436.497Z" fill="black"/>
<path fill-rule="evenodd" clip-rule="evenodd" d="M451.082 204.709L444.369 198.325L442.256 207.065L448.469 213.583L451.082 204.709ZM450.061 215.254L453.345 204.102L444.912 196.081L443.239 194.49L442.696 196.734L440.056 207.655L447.816 215.797L449.409 217.468L450.061 215.254ZM142.176 262.456L151.256 260.619L157.026 267.849L148.123 269.2L142.176 262.456ZM152.057 258.416L159.308 267.503L160.748 269.307L158.466 269.653L147.345 271.341L139.913 262.913L138.386 261.182L140.649 260.724L152.057 258.416ZM178.799 424.321L186.607 419.346L194.578 424.039L186.761 428.496L178.799 424.321ZM186.566 417.001L196.581 422.898L198.568 424.067L196.565 425.209L186.802 430.775L176.855 425.56L174.813 424.489L176.757 423.251L186.566 417.001ZM416.833 467.067L425.315 463.388L432.465 469.28L424.055 472.446L416.833 467.067ZM425.642 461.066L434.624 468.467L436.404 469.934L434.245 470.747L423.737 474.703L414.717 467.985L412.867 466.607L414.983 465.689L425.642 461.066ZM309.707 447.229L297.585 454.09L297.659 440.548L309.099 433.309L309.707 447.229ZM475.9 339.87L489.044 335.212L490.876 321.407L478.337 326.556L475.9 339.87ZM590.092 427.984L587.313 419.161L581.212 425.776L583.488 434.473L590.092 427.984ZM584.071 436.703L592.368 428.551L588.876 417.467L588.184 415.268L586.621 416.963L579 425.224L581.843 436.089L582.427 438.319L584.071 436.703ZM538.72 256.611L543.692 248.805L552.902 249.691L547.702 257.031L538.72 256.611ZM542.664 246.697L554.235 247.81L556.53 248.031L555.197 249.912L548.702 259.08L537.481 258.555L535.178 258.448L536.417 256.503L542.664 246.697ZM54.3396 424.212L61.2755 430.347L63.0922 421.544L56.6521 415.257L54.3396 424.212ZM55.0024 413.646L52.0968 424.898L60.8095 432.605L62.5364 434.133L63.0024 431.875L65.272 420.877L57.2286 413.025L55.5788 411.414L55.0024 413.646ZM201.943 302.198L203.159 293.033L211.892 289.938L210.273 298.777L201.943 302.198ZM201.337 291.556L212.307 287.669L214.482 286.898L214.066 289.167L212.044 300.212L201.64 304.484L199.506 305.361L199.809 303.074L201.337 291.556Z" fill="black"/>
<path fill-rule="evenodd" clip-rule="evenodd" d="M349.5 459C422.678 459 482 399.678 482 326.5C482 253.322 422.678 194 349.5 194C276.322 194 217 253.322 217 326.5C217 399.678 276.322 459 349.5 459Z" fill="white"/>
<path fill-rule="evenodd" clip-rule="evenodd" d="M345.81 251.704V404.996H427V251.704H345.81Z" fill="black"/>
<path d="M419.119 308.916V348.065H272.5V308.916H419.119Z" fill="white" stroke="black"/>
<path d="M419.119 356.364V397.197H272.5V356.364H419.119Z" fill="#F2C4A3" stroke="black"/>
<path d="M419.119 257.819V298.651H272.5V257.819H419.119Z" fill="white" stroke="black"/>
</svg>
