<svg width="698" height="295" viewBox="0 0 698 295" fill="none" xmlns="http://www.w3.org/2000/svg">
<path d="M291.703 12.4104L291.442 12.8371L291.703 12.9963L291.963 12.8371L291.703 12.4104ZM299.603 7.5855L299.864 8.01222L300.603 7.56096L299.843 7.14651L299.603 7.5855ZM283.802 7.5855L283.563 7.14651L282.803 7.56096L283.542 8.01222L283.802 7.5855ZM291.703 3.27796L291.942 2.83897L291.703 2.70847L291.463 2.83897L291.703 3.27796ZM281.775 8.69086L281.514 9.11757V9.11757L281.775 8.69086ZM291.703 14.7539L291.442 15.1806L291.703 15.3398L291.963 15.1806L291.703 14.7539ZM279.804 7.48735L279.565 7.04836L278.805 7.46281L279.544 7.91407L279.804 7.48735ZM281.832 6.38199L281.592 5.943V5.94301L281.832 6.38199ZM291.703 1L291.942 0.56101L291.703 0.430511L291.463 0.56101L291.703 1ZM301.574 6.38199L301.335 6.82098V6.82098L301.574 6.38199ZM303.601 7.48735L303.862 7.91407L304.601 7.46281L303.841 7.04836L303.601 7.48735ZM301.631 8.69086L301.891 9.11757L301.631 8.69086ZM84.2974 42.6874L84.6534 43.0385L85.2611 42.4221L84.4236 42.2036L84.2974 42.6874ZM77.8017 49.2762L77.652 49.7532L77.9434 49.8447L78.1578 49.6272L77.8017 49.2762ZM75.5859 40.4154L75.7121 39.9316L75.4483 39.8628L75.2475 40.0473L75.5859 40.4154ZM68.965 46.5021L68.6266 46.134L67.9894 46.7199L68.8153 46.9792L68.965 46.5021ZM78.3683 51.5503L78.2185 52.0273L78.5099 52.1188L78.7243 51.9013L78.3683 51.5503ZM67.2653 48.0648L67.415 47.5877L67.2653 48.0648ZM86.5315 43.2701L86.8875 43.6211L86.5315 43.2701ZM88.1524 41.6259L88.5084 41.977L89.1161 41.3606L88.2786 41.1421L88.1524 41.6259ZM85.9183 41.0433L86.0445 40.5595V40.5594L85.9183 41.0433ZM75.0353 38.2049L75.1615 37.7211L74.8976 37.6523L74.6969 37.8368L75.0353 38.2049ZM66.7621 45.8106L67.1005 46.1787L66.7621 45.8106ZM65.0624 47.3732L64.724 47.0051L64.0867 47.591L64.9126 47.8503L65.0624 47.3732ZM210.256 47.6187L210.646 47.3069L210.456 47.0681L210.156 47.1287L210.256 47.6187ZM201.176 49.4556L201.077 48.9656L200.229 49.1372L200.801 49.7863L201.176 49.4556ZM216.026 54.849L216.101 55.3433L216.956 55.2135L216.416 54.5371L216.026 54.849ZM207.123 56.1996L206.748 56.5303L206.929 56.7349L207.198 56.6939L207.123 56.1996ZM218.308 54.5027L218.699 54.1908L218.308 54.5027ZM211.057 45.4162L211.447 45.1043L211.257 44.8655L210.958 44.9261L211.057 45.4162ZM219.748 56.3071L219.823 56.8015L220.679 56.6717L220.139 55.9953L219.748 56.3071ZM217.466 56.6534L217.391 56.1591L217.466 56.6534ZM206.345 58.3406L205.97 58.6713L206.15 58.8759L206.42 58.8349L206.345 58.3406ZM198.913 49.9134L199.288 49.5827L198.913 49.9134ZM197.386 48.1818L197.287 47.6918L196.439 47.8634L197.011 48.5125L197.386 48.1818ZM199.649 47.724L199.55 47.234L199.649 47.724ZM72.2912 158.169L72.7496 157.969L72.6274 157.688L72.3216 157.67L72.2912 158.169ZM63.0504 157.604L63.0808 157.105L62.2194 157.052L62.6022 157.826L63.0504 157.604ZM75.9816 166.651L75.9266 167.148L76.7843 167.243L76.44 166.451L75.9816 166.651ZM67.0381 165.662L66.59 165.884L66.7113 166.129L66.9832 166.159L67.0381 165.662ZM78.2729 166.904L77.8144 167.104L78.2729 166.904ZM73.6362 156.247L74.0947 156.048L73.9725 155.767L73.6667 155.748L73.6362 156.247ZM79.1926 169.018L79.1376 169.515L79.9953 169.61L79.6511 168.819L79.1926 169.018ZM76.9012 168.765L76.8463 169.262H76.8463L76.9012 168.765ZM65.7309 167.529L65.2828 167.751L65.4041 167.996L65.6759 168.026L65.7309 167.529ZM60.7493 157.464L61.1974 157.242L60.7493 157.464ZM59.7267 155.397L59.7572 154.898L58.8958 154.846L59.2786 155.619L59.7267 155.397ZM62.0278 155.538L61.9973 156.037H61.9973L62.0278 155.538ZM637.176 54.4556L637.077 53.9656L636.229 54.1372L636.801 54.7863L637.176 54.4556ZM646.256 52.6187L646.646 52.3069L646.456 52.0681L646.157 52.1287L646.256 52.6187ZM643.123 61.1996L642.748 61.5303L642.929 61.7349L643.198 61.6939L643.123 61.1996ZM652.026 59.849L652.101 60.3433L652.956 60.2135L652.416 59.5371L652.026 59.849ZM647.057 50.4162L647.448 50.1043L647.257 49.8655L646.958 49.9261L647.057 50.4162ZM654.308 59.5027L653.917 59.8146V59.8146L654.308 59.5027ZM635.649 52.724L635.55 52.234L635.649 52.724ZM633.386 53.1818L633.287 52.6918L632.439 52.8634L633.011 53.5125L633.386 53.1818ZM634.913 54.9134L635.288 54.5827L634.913 54.9134ZM642.345 63.3406L641.97 63.6713L642.15 63.8759L642.42 63.8349L642.345 63.3406ZM653.466 61.6534L653.391 61.1591L653.466 61.6534ZM655.748 61.3071L655.823 61.8015L656.679 61.6717L656.139 60.9952L655.748 61.3071ZM148.013 144.222L147.822 143.76L147.539 143.877L147.515 144.182L148.013 144.222ZM147.279 153.438L146.781 153.398L146.712 154.259L147.493 153.89L147.279 153.438ZM156.572 140.675L157.068 140.739L157.179 139.882L156.381 140.213L156.572 140.675ZM155.419 149.587L155.633 150.039L155.88 149.922L155.915 149.651L155.419 149.587ZM156.868 138.387L156.677 137.925L156.868 138.387ZM146.117 142.843L145.925 142.381L145.642 142.498L145.618 142.803L146.117 142.843ZM158.999 137.504L159.495 137.568L159.606 136.711L158.808 137.042L158.999 137.504ZM158.703 139.792L158.207 139.727L158.703 139.792ZM157.262 150.927L157.476 151.379L157.723 151.262L157.758 150.991L157.262 150.927ZM147.096 155.737L146.882 155.285L147.096 155.737ZM145.011 156.724L144.513 156.684L144.445 157.545L145.225 157.176L145.011 156.724ZM145.195 154.424L144.696 154.385L145.195 154.424ZM213.004 194.868L212.504 194.865L212.5 195.728L213.251 195.303L213.004 194.868ZM225.126 188.007L225.373 188.442L225.639 188.291L225.626 187.985L225.126 188.007ZM213.078 181.326L212.811 180.903L212.58 181.049L212.578 181.323L213.078 181.326ZM224.518 174.087L225.017 174.065L224.98 173.203L224.251 173.664L224.518 174.087ZM468.9 74.8972L469.067 75.3685L469.356 75.2663L469.396 74.9629L468.9 74.8972ZM455.756 79.5554L455.264 79.4654L455.108 80.3153L455.923 80.0267L455.756 79.5554ZM470.732 61.093L471.227 61.1587L471.341 60.3023L470.542 60.6304L470.732 61.093ZM458.194 66.2416L458.004 65.779L457.751 65.8828L457.702 66.1515L458.194 66.2416ZM12.0922 94.9836L12.4426 95.3402L12.6611 95.1255L12.5691 94.8334L12.0922 94.9836ZM9.31329 86.1614L9.79019 86.0112L9.53091 85.188L8.94577 85.8224L9.31329 86.1614ZM5.48764 101.473L5.00393 101.599L5.22243 102.434L5.83807 101.829L5.48764 101.473ZM3.21179 92.776L2.84427 92.437L2.65884 92.638L2.72808 92.9026L3.21179 92.776ZM6.0713 103.703L6.42173 104.06H6.42173L6.0713 103.703ZM14.3679 95.5514L14.7183 95.9081L14.9368 95.6934L14.8448 95.4012L14.3679 95.5514ZM4.42679 105.319L3.94308 105.446L4.16158 106.281L4.77722 105.676L4.42679 105.319ZM3.84313 103.089L3.35942 103.215H3.35942L3.84313 103.089ZM1 92.2241L0.632479 91.885L0.447053 92.0861L0.516288 92.3506L1 92.2241ZM8.62067 83.9625L8.25315 83.6235L8.62067 83.9625ZM10.1838 82.268L10.6607 82.1177L10.4014 81.2946L9.81626 81.9289L10.1838 82.268ZM10.8764 84.4668L10.3995 84.6171L10.8764 84.4668ZM565.313 153.161L565.79 153.011L565.531 152.188L564.946 152.822L565.313 153.161ZM568.092 161.984L568.443 162.34L568.661 162.126L568.569 161.833L568.092 161.984ZM559.212 159.776L558.844 159.437L558.659 159.638L558.728 159.903L559.212 159.776ZM561.488 168.473L561.004 168.599L561.222 169.434L561.838 168.829L561.488 168.473ZM570.368 162.551L570.718 162.908L570.937 162.693L570.845 162.401L570.368 162.551ZM562.071 170.703L562.422 171.06L562.071 170.703ZM566.876 151.467L567.353 151.317L566.876 151.467ZM566.184 149.268L566.661 149.118L566.401 148.295L565.816 148.929L566.184 149.268ZM564.621 150.963L564.988 151.302L564.621 150.963ZM557 159.224L556.633 158.885L556.447 159.086L556.516 159.351L557 159.224ZM559.843 170.089L559.359 170.215L559.843 170.089ZM560.427 172.319L559.943 172.446L560.162 173.281L560.777 172.676L560.427 172.319ZM617.798 183.401L618.21 183.684L618.701 182.972L617.838 182.902L617.798 183.401ZM612.545 191.021L612.481 191.517L612.784 191.556L612.957 191.305L612.545 191.021ZM608.828 182.676L608.868 182.178L608.596 182.156L608.431 182.373L608.828 182.676ZM603.365 189.824L602.967 189.52L602.442 190.208L603.3 190.32L603.365 189.824ZM613.499 193.162L613.434 193.658L613.737 193.698L613.91 193.446L613.499 193.162ZM601.963 191.658L601.898 192.154L601.963 191.658ZM620.099 183.586L620.511 183.87V183.87L620.099 183.586ZM621.409 181.686L621.821 181.969L622.312 181.257L621.449 181.187L621.409 181.686ZM619.108 181.5L619.148 181.001L619.108 181.5ZM607.901 180.595L607.942 180.097L607.67 180.075L607.504 180.291L607.901 180.595ZM601.076 189.525L600.678 189.222V189.222L601.076 189.525ZM599.674 191.36L599.276 191.056L598.751 191.744L599.609 191.855L599.674 191.36ZM230.151 282.204L229.707 281.974L229.566 282.245L229.744 282.495L230.151 282.204ZM235.526 289.739L235.119 290.03L235.62 290.732L235.98 289.948L235.526 289.739ZM234.423 273.997L234.844 273.727L234.378 273.001L233.979 273.766L234.423 273.997ZM239.28 281.568L239.735 281.777L239.849 281.528L239.701 281.298L239.28 281.568ZM233.178 272.057L233.621 272.288L233.178 272.057ZM227.811 282.368L227.368 282.137L227.226 282.409L227.404 282.659L227.811 282.368ZM234.242 270.012L234.663 269.742L234.197 269.016L233.799 269.781L234.242 270.012ZM235.487 271.952L235.066 272.222L235.487 271.952ZM241.555 281.409L242.009 281.618L242.123 281.369L241.975 281.139L241.555 281.409ZM236.865 291.616L236.41 291.407L236.865 291.616ZM235.902 293.711L235.495 294.001L235.996 294.704L236.356 293.919L235.902 293.711ZM234.563 291.834L234.156 292.124L234.563 291.834ZM693.275 205.347L692.944 205.722L693.591 206.294L693.765 205.448L693.275 205.347ZM686.34 199.212L685.856 199.087L685.779 199.383L686.008 199.586L686.34 199.212ZM695.092 196.544L695.582 196.645L695.637 196.377L695.441 196.186L695.092 196.544ZM688.652 190.257L689.001 189.899L688.384 189.296L688.168 190.132L688.652 190.257ZM684.097 199.898L683.613 199.773L683.536 200.07L683.766 200.273L684.097 199.898ZM687.002 188.646L686.518 188.521L687.002 188.646ZM692.809 207.605L692.478 207.98L692.809 207.605ZM694.536 209.133L694.205 209.507L694.852 210.079L695.026 209.234L694.536 209.133ZM695.002 206.875L694.513 206.774V206.774L695.002 206.875ZM697.272 195.877L697.762 195.978L697.817 195.71L697.621 195.519L697.272 195.877ZM689.229 188.025L689.578 187.667L689.229 188.025ZM687.579 186.414L687.928 186.056L687.311 185.453L687.095 186.289L687.579 186.414ZM518.186 253.039L518.019 252.568L517.73 252.67L517.69 252.973L518.186 253.039ZM516.97 262.204L516.474 262.138L516.361 262.995L517.16 262.667L516.97 262.204ZM526.919 249.944L527.411 250.034L527.566 249.184L526.752 249.473L526.919 249.944ZM525.3 258.783L525.49 259.246L525.743 259.142L525.792 258.873L525.3 258.783ZM527.334 247.675L527.501 248.146L527.334 247.675ZM516.364 251.563L516.197 251.091L515.909 251.194L515.868 251.497L516.364 251.563ZM529.509 246.904L530.001 246.994L530.156 246.144L529.342 246.433L529.509 246.904ZM529.093 249.174L529.585 249.264L529.093 249.174ZM527.071 260.218L527.261 260.681L527.514 260.577L527.563 260.308L527.071 260.218ZM516.667 264.491L516.477 264.028L516.667 264.491ZM514.533 265.367L514.037 265.301L513.924 266.158L514.723 265.829L514.533 265.367ZM514.836 263.08L515.332 263.146V263.146L514.836 263.08ZM291.963 12.8371L299.864 8.01222L299.343 7.15878L291.442 11.9837L291.963 12.8371ZM283.542 8.01222L291.442 12.8371L291.963 11.9837L284.063 7.15878L283.542 8.01222ZM291.463 2.83897L283.563 7.14651L284.042 8.02449L291.942 3.71695L291.463 2.83897ZM299.843 7.14651L291.942 2.83897L291.463 3.71695L299.364 8.02449L299.843 7.14651ZM281.514 9.11757L291.442 15.1806L291.963 14.3272L282.036 8.26414L281.514 9.11757ZM279.544 7.91407L281.514 9.11757L282.036 8.26414L280.065 7.06063L279.544 7.91407ZM281.592 5.94301L279.565 7.04836L280.044 7.92634L282.071 6.82098L281.592 5.94301ZM291.463 0.56101L281.592 5.943L282.071 6.82098L291.942 1.43899L291.463 0.56101ZM301.813 5.943L291.942 0.56101L291.463 1.43899L301.335 6.82098L301.813 5.943ZM303.841 7.04836L301.813 5.943L301.335 6.82098L303.362 7.92634L303.841 7.04836ZM301.891 9.11757L303.862 7.91407L303.341 7.06063L301.37 8.26414L301.891 9.11757ZM291.963 15.1806L301.891 9.11757L301.37 8.26414L291.442 14.3272L291.963 15.1806ZM83.9413 42.3364L77.4457 48.9252L78.1578 49.6272L84.6534 43.0385L83.9413 42.3364ZM75.4597 40.8992L84.1712 43.1712L84.4236 42.2036L75.7121 39.9316L75.4597 40.8992ZM69.3034 46.8702L75.9243 40.7835L75.2475 40.0473L68.6266 46.134L69.3034 46.8702ZM77.9515 48.7991L69.1148 46.0251L68.8153 46.9792L77.652 49.7532L77.9515 48.7991ZM78.518 51.0732L67.415 47.5877L67.1155 48.5418L78.2185 52.0273L78.518 51.0732ZM86.1754 42.9191L78.0122 51.1992L78.7243 51.9013L86.8875 43.6211L86.1754 42.9191ZM87.7963 41.2749L86.1754 42.9191L86.8875 43.6211L88.5084 41.977L87.7963 41.2749ZM85.7921 41.5271L88.0262 42.1097L88.2786 41.1421L86.0445 40.5595L85.7921 41.5271ZM74.9091 38.6887L85.7921 41.5271L86.0445 40.5594L75.1615 37.7211L74.9091 38.6887ZM67.1005 46.1787L75.3737 38.573L74.6969 37.8368L66.4237 45.4425L67.1005 46.1787ZM65.4008 47.7413L67.1005 46.1787L66.4237 45.4425L64.724 47.0051L65.4008 47.7413ZM67.415 47.5877L65.2121 46.8962L64.9126 47.8503L67.1155 48.5418L67.415 47.5877ZM210.156 47.1287L201.077 48.9656L201.275 49.9457L210.355 48.1088L210.156 47.1287ZM216.416 54.5371L210.646 47.3069L209.865 47.9306L215.635 55.1609L216.416 54.5371ZM207.198 56.6939L216.101 55.3433L215.951 54.3546L207.048 55.7053L207.198 56.6939ZM200.801 49.7863L206.748 56.5303L207.498 55.8689L201.551 49.1249L200.801 49.7863ZM218.699 54.1908L211.447 45.1043L210.666 45.728L217.917 54.8146L218.699 54.1908ZM220.139 55.9953L218.699 54.1908L217.917 54.8146L219.357 56.619L220.139 55.9953ZM217.541 57.1477L219.823 56.8015L219.673 55.8128L217.391 56.1591L217.541 57.1477ZM206.42 58.8349L217.541 57.1477L217.391 56.1591L206.27 57.8463L206.42 58.8349ZM198.538 50.2441L205.97 58.6713L206.72 58.0099L199.288 49.5827L198.538 50.2441ZM197.011 48.5125L198.538 50.2441L199.288 49.5827L197.761 47.8511L197.011 48.5125ZM199.55 47.234L197.287 47.6918L197.485 48.6719L199.748 48.2141L199.55 47.234ZM210.958 44.9261L199.55 47.234L199.748 48.2141L211.156 45.9062L210.958 44.9261ZM72.3216 157.67L63.0808 157.105L63.0199 158.103L72.2607 158.668L72.3216 157.67ZM76.44 166.451L72.7496 157.969L71.8327 158.368L75.5231 166.85L76.44 166.451ZM66.9832 166.159L75.9266 167.148L76.0365 166.154L67.0931 165.165L66.9832 166.159ZM62.6022 157.826L66.59 165.884L67.4863 165.44L63.4985 157.382L62.6022 157.826ZM78.7314 166.705L74.0947 156.048L73.1777 156.447L77.8144 167.104L78.7314 166.705ZM79.6511 168.819L78.7314 166.705L77.8144 167.104L78.7341 169.218L79.6511 168.819ZM76.8463 169.262L79.1376 169.515L79.2476 168.521L76.9562 168.268L76.8463 169.262ZM65.6759 168.026L76.8463 169.262L76.9562 168.268L65.7859 167.032L65.6759 168.026ZM60.3011 157.685L65.2828 167.751L66.179 167.308L61.1974 157.242L60.3011 157.685ZM59.2786 155.619L60.3011 157.685L61.1974 157.242L60.1748 155.176L59.2786 155.619ZM62.0583 155.039L59.7572 154.898L59.6962 155.896L61.9973 156.037L62.0583 155.039ZM73.6667 155.748L62.0583 155.039L61.9973 156.037L73.6058 156.746L73.6667 155.748ZM637.275 54.9457L646.355 53.1088L646.157 52.1287L637.077 53.9656L637.275 54.9457ZM643.498 60.8689L637.551 54.1249L636.801 54.7863L642.748 61.5303L643.498 60.8689ZM651.951 59.3546L643.048 60.7053L643.198 61.6939L652.101 60.3433L651.951 59.3546ZM645.865 52.9306L651.635 60.1609L652.416 59.5371L646.646 52.3069L645.865 52.9306ZM646.666 50.728L653.917 59.8146L654.699 59.1908L647.448 50.1043L646.666 50.728ZM635.748 53.2141L647.156 50.9062L646.958 49.9261L635.55 52.234L635.748 53.2141ZM633.485 53.6719L635.748 53.2141L635.55 52.234L633.287 52.6918L633.485 53.6719ZM635.288 54.5827L633.761 52.8511L633.011 53.5125L634.538 55.2441L635.288 54.5827ZM642.72 63.0099L635.288 54.5827L634.538 55.2441L641.97 63.6713L642.72 63.0099ZM653.391 61.1591L642.27 62.8463L642.42 63.8349L653.541 62.1477L653.391 61.1591ZM655.673 60.8128L653.391 61.1591L653.541 62.1477L655.823 61.8015L655.673 60.8128ZM653.917 59.8146L655.357 61.619L656.139 60.9952L654.699 59.1908L653.917 59.8146ZM147.515 144.182L146.781 153.398L147.778 153.478L148.511 144.261L147.515 144.182ZM156.381 140.213L147.822 143.76L148.204 144.684L156.764 141.137L156.381 140.213ZM155.915 149.651L157.068 140.739L156.076 140.611L154.923 149.522L155.915 149.651ZM147.493 153.89L155.633 150.039L155.205 149.135L147.066 152.986L147.493 153.89ZM156.677 137.925L145.925 142.381L146.308 143.305L157.059 138.849L156.677 137.925ZM158.808 137.042L156.677 137.925L157.059 138.849L159.19 137.966L158.808 137.042ZM159.199 139.856L159.495 137.568L158.503 137.44L158.207 139.727L159.199 139.856ZM157.758 150.991L159.199 139.856L158.207 139.727L156.767 150.863L157.758 150.991ZM147.31 156.189L157.476 151.379L157.049 150.475L146.882 155.285L147.31 156.189ZM145.225 157.176L147.31 156.189L146.882 155.285L144.798 156.272L145.225 157.176ZM144.696 154.385L144.513 156.684L145.51 156.763L145.693 154.464L144.696 154.385ZM145.618 142.803L144.696 154.385L145.693 154.464L146.615 142.882L145.618 142.803ZM213.251 195.303L225.373 188.442L224.88 187.572L212.758 194.432L213.251 195.303ZM212.578 181.323L212.504 194.865L213.504 194.87L213.578 181.328L212.578 181.323ZM224.251 173.664L212.811 180.903L213.346 181.748L224.785 174.509L224.251 173.664ZM225.626 187.985L225.017 174.065L224.018 174.108L224.627 188.029L225.626 187.985ZM468.733 74.4259L455.589 79.0841L455.923 80.0267L469.067 75.3685L468.733 74.4259ZM470.236 61.0272L468.405 74.8314L469.396 74.9629L471.227 61.1587L470.236 61.0272ZM458.384 66.7041L470.922 61.5555L470.542 60.6304L458.004 65.779L458.384 66.7041ZM456.248 79.6455L458.685 66.3316L457.702 66.1515L455.264 79.4654L456.248 79.6455ZM12.5691 94.8334L9.79019 86.0112L8.83639 86.3116L11.6153 95.1338L12.5691 94.8334ZM5.83807 101.829L12.4426 95.3402L11.7417 94.6269L5.13721 101.116L5.83807 101.829ZM2.72808 92.9026L5.00393 101.599L5.97135 101.346L3.6955 92.6494L2.72808 92.9026ZM8.94577 85.8224L2.84427 92.437L3.57931 93.115L9.68081 86.5004L8.94577 85.8224ZM6.42173 104.06L14.7183 95.9081L14.0175 95.1948L5.72087 103.347L6.42173 104.06ZM4.77722 105.676L6.42173 104.06L5.72087 103.347L4.07636 104.962L4.77722 105.676ZM3.35942 103.215L3.94308 105.446L4.9105 105.192L4.32684 102.962L3.35942 103.215ZM0.516288 92.3506L3.35942 103.215L4.32684 102.962L1.48371 92.0975L0.516288 92.3506ZM8.25315 83.6235L0.632479 91.885L1.36752 92.5631L8.98819 84.3015L8.25315 83.6235ZM9.81626 81.9289L8.25315 83.6235L8.98819 84.3015L10.5513 82.607L9.81626 81.9289ZM11.3533 84.3166L10.6607 82.1177L9.70688 82.4182L10.3995 84.6171L11.3533 84.3166ZM14.8448 95.4012L11.3533 84.3166L10.3995 84.6171L13.891 95.7016L14.8448 95.4012ZM564.836 153.312L567.615 162.134L568.569 161.833L565.79 153.011L564.836 153.312ZM559.579 160.115L565.681 153.5L564.946 152.822L558.844 159.437L559.579 160.115ZM561.971 168.346L559.695 159.649L558.728 159.903L561.004 168.599L561.971 168.346ZM567.742 161.627L561.137 168.116L561.838 168.829L568.443 162.34L567.742 161.627ZM570.018 162.195L561.721 170.347L562.422 171.06L570.718 162.908L570.018 162.195ZM566.399 151.617L569.891 162.702L570.845 162.401L567.353 151.317L566.399 151.617ZM565.707 149.418L566.399 151.617L567.353 151.317L566.661 149.118L565.707 149.418ZM564.988 151.302L566.551 149.607L565.816 148.929L564.253 150.624L564.988 151.302ZM557.367 159.563L564.988 151.302L564.253 150.624L556.633 158.885L557.367 159.563ZM560.327 169.962L557.484 159.097L556.516 159.351L559.359 170.215L560.327 169.962ZM560.911 172.192L560.327 169.962L559.359 170.215L559.943 172.446L560.911 172.192ZM561.721 170.347L560.076 171.962L560.777 172.676L562.422 171.06L561.721 170.347ZM617.386 183.117L612.134 190.737L612.957 191.305L618.21 183.684L617.386 183.117ZM608.788 183.175L617.758 183.899L617.838 182.902L608.868 182.178L608.788 183.175ZM603.762 190.128L609.225 182.98L608.431 182.373L602.967 189.52L603.762 190.128ZM612.61 190.525L603.429 189.328L603.3 190.32L612.481 191.517L612.61 190.525ZM613.563 192.666L602.027 191.162L601.898 192.154L613.434 193.658L613.563 192.666ZM619.687 183.303L613.087 192.878L613.91 193.446L620.511 183.87L619.687 183.303ZM620.997 181.402L619.687 183.303L620.511 183.87L621.821 181.969L620.997 181.402ZM619.068 181.998L621.369 182.184L621.449 181.187L619.148 181.001L619.068 181.998ZM607.861 181.093L619.068 181.998L619.148 181.001L607.942 180.097L607.861 181.093ZM601.473 189.829L608.299 180.899L607.504 180.291L600.678 189.222L601.473 189.829ZM600.071 191.663L601.473 189.829L600.678 189.222L599.276 191.056L600.071 191.663ZM602.027 191.162L599.738 190.864L599.609 191.855L601.898 192.154L602.027 191.162ZM229.744 282.495L235.119 290.03L235.933 289.449L230.558 281.914L229.744 282.495ZM233.979 273.766L229.707 281.974L230.594 282.435L234.866 274.228L233.979 273.766ZM239.701 281.298L234.844 273.727L234.002 274.267L238.86 281.838L239.701 281.298ZM235.98 289.948L239.735 281.777L238.826 281.359L235.072 289.531L235.98 289.948ZM232.734 271.826L227.368 282.137L228.255 282.599L233.621 272.288L232.734 271.826ZM233.799 269.781L232.734 271.826L233.621 272.288L234.686 270.243L233.799 269.781ZM235.908 271.682L234.663 269.742L233.821 270.282L235.066 272.222L235.908 271.682ZM241.975 281.139L235.908 271.682L235.066 272.222L241.134 281.679L241.975 281.139ZM237.319 291.825L242.009 281.618L241.1 281.2L236.41 291.407L237.319 291.825ZM236.356 293.919L237.319 291.825L236.41 291.407L235.448 293.502L236.356 293.919ZM234.156 292.124L235.495 294.001L236.309 293.42L234.97 291.544L234.156 292.124ZM227.404 282.659L234.156 292.124L234.97 291.544L228.218 282.078L227.404 282.659ZM693.607 204.973L686.671 198.837L686.008 199.586L692.944 205.722L693.607 204.973ZM694.602 196.443L692.786 205.246L693.765 205.448L695.582 196.645L694.602 196.443ZM688.303 190.615L694.743 196.902L695.441 196.186L689.001 189.899L688.303 190.615ZM686.824 199.337L689.136 190.382L688.168 190.132L685.856 199.087L686.824 199.337ZM684.581 200.023L687.487 188.771L686.518 188.521L683.613 199.773L684.581 200.023ZM693.141 207.231L684.428 199.524L683.766 200.273L692.478 207.98L693.141 207.231ZM694.868 208.758L693.141 207.231L692.478 207.98L694.205 209.507L694.868 208.758ZM694.513 206.774L694.047 209.032L695.026 209.234L695.492 206.976L694.513 206.774ZM696.782 195.776L694.513 206.774L695.492 206.976L697.762 195.978L696.782 195.776ZM688.879 188.382L696.923 196.235L697.621 195.519L689.578 187.667L688.879 188.382ZM687.23 186.772L688.879 188.382L689.578 187.667L687.928 186.056L687.23 186.772ZM687.487 188.771L688.063 186.539L687.095 186.289L686.518 188.521L687.487 188.771ZM517.69 252.973L516.474 262.138L517.466 262.27L518.681 253.105L517.69 252.973ZM526.752 249.473L518.019 252.568L518.353 253.51L527.086 250.415L526.752 249.473ZM525.792 258.873L527.411 250.034L526.427 249.854L524.809 258.693L525.792 258.873ZM517.16 262.667L525.49 259.246L525.111 258.321L516.78 261.742L517.16 262.667ZM527.167 247.204L516.197 251.091L516.531 252.034L527.501 248.146L527.167 247.204ZM529.342 246.433L527.167 247.204L527.501 248.146L529.676 247.376L529.342 246.433ZM529.585 249.264L530.001 246.994L529.017 246.814L528.601 249.083L529.585 249.264ZM527.563 260.308L529.585 249.264L528.601 249.083L526.579 260.128L527.563 260.308ZM516.857 264.953L527.261 260.681L526.881 259.756L516.477 264.028L516.857 264.953ZM514.723 265.829L516.857 264.953L516.477 264.028L514.343 264.904L514.723 265.829ZM514.341 263.014L514.037 265.301L515.029 265.433L515.332 263.146L514.341 263.014ZM515.868 251.497L514.341 263.014L515.332 263.146L516.86 251.628L515.868 251.497Z" fill="black"/>
<path fill-rule="evenodd" clip-rule="evenodd" d="M451.082 19.709L444.369 13.3251L442.256 22.0649L448.469 28.5826L451.082 19.709ZM450.061 30.2537L453.345 19.1019L444.912 11.0811L443.239 9.49008L442.696 11.7341L440.056 22.6551L447.816 30.7972L449.409 32.4682L450.061 30.2537ZM142.176 77.4556L151.256 75.6187L157.026 82.849L148.123 84.1996L142.176 77.4556ZM152.057 73.4162L159.308 82.5027L160.748 84.3071L158.466 84.6534L147.345 86.3406L139.913 77.9134L138.386 76.1818L140.649 75.724L152.057 73.4162ZM178.799 239.321L186.607 234.346L194.578 239.039L186.761 243.496L178.799 239.321ZM186.566 232.001L196.581 237.898L198.568 239.067L196.565 240.209L186.802 245.775L176.855 240.56L174.813 239.489L176.757 238.251L186.566 232.001ZM416.833 282.067L425.315 278.388L432.465 284.28L424.055 287.446L416.833 282.067ZM425.642 276.066L434.624 283.467L436.404 284.934L434.245 285.747L423.737 289.703L414.717 282.985L412.867 281.607L414.983 280.689L425.642 276.066ZM309.707 262.229L297.585 269.09L297.659 255.548L309.099 248.309L309.707 262.229ZM475.9 154.87L489.044 150.212L490.876 136.407L478.337 141.556L475.9 154.87ZM590.092 242.984L587.313 234.161L581.212 240.776L583.488 249.473L590.092 242.984ZM584.071 251.703L592.368 243.551L588.876 232.467L588.184 230.268L586.621 231.963L579 240.224L581.843 251.089L582.427 253.319L584.071 251.703ZM538.72 71.6111L543.692 63.805L552.902 64.6911L547.702 72.0313L538.72 71.6111ZM542.664 61.6968L554.235 62.8101L556.53 63.0308L555.197 64.9119L548.702 74.0802L537.481 73.5554L535.178 73.4477L536.417 71.5034L542.664 61.6968ZM54.3396 239.212L61.2755 245.347L63.0922 236.544L56.6521 230.257L54.3396 239.212ZM55.0024 228.646L52.0968 239.898L60.8095 247.605L62.5364 249.133L63.0024 246.875L65.272 235.877L57.2286 228.025L55.5788 226.414L55.0024 228.646ZM201.943 117.198L203.159 108.033L211.892 104.938L210.273 113.777L201.943 117.198ZM201.337 106.556L212.307 102.669L214.482 101.898L214.066 104.167L212.044 115.212L201.64 119.484L199.506 120.361L199.809 118.074L201.337 106.556Z" fill="black"/>
<path fill-rule="evenodd" clip-rule="evenodd" d="M349.5 274C422.678 274 482 214.678 482 141.5C482 68.3223 422.678 9 349.5 9C276.322 9 217 68.3223 217 141.5C217 214.678 276.322 274 349.5 274Z" fill="white"/>
<path fill-rule="evenodd" clip-rule="evenodd" d="M345.81 66.7036V219.996H427V66.7036H345.81Z" fill="black"/>
<path d="M419.119 123.916V163.065H272.5V123.916H419.119Z" fill="white" stroke="black"/>
<path d="M419.119 171.364V212.197H272.5V171.364H419.119Z" fill="#F2C4A3" stroke="black"/>
<path d="M419.119 72.8187V113.651H272.5V72.8187H419.119Z" fill="white" stroke="black"/>
</svg>
